<svg width="990" height="300" viewBox="0 0 990 300" fill="none" xmlns="http://www.w3.org/2000/svg">
<g clip-path="url(#clip0_1508_1885)">
<path fill-rule="evenodd" clip-rule="evenodd" d="M259.139 186.315C263.223 188.11 267.692 188.376 270.887 188.376C280.327 188.376 287.465 182.469 287.465 161.701C287.465 145.416 281.596 140.159 273.051 140.159C267.943 140.159 264.244 141.574 259.139 144.389L259.139 186.315ZM259.273 134.903C263.092 132.858 269.598 130.156 276.491 130.156C292.314 130.156 300.865 141.183 300.865 161.701C300.865 185.682 289.379 197.35 270.887 197.35C264.119 197.35 253.657 195.17 245.997 191.057V101.563L259.273 98.3623V134.903ZM117.292 131.545H118.189L135.535 195.538H149.316L169.994 104.624H155.064L142.047 172.461H141.154L123.417 104.624H112.057L95.4727 172.461H94.5802L80.2884 104.624H66L86.6721 195.538H100.443L117.292 131.545ZM217.337 156.839H188.123C189.52 144.023 195.521 137.998 203.304 137.998C210.192 137.998 216.703 143.379 217.337 156.839ZM227.543 190.7V180.953C220.53 185.176 214.151 187.617 207.262 187.616C194.115 187.616 187.867 180.819 187.867 165.436H229.463V160.691C229.463 139.795 219.632 129.401 203.687 129.401C184.547 129.401 174.724 143.507 174.724 163.006C174.724 183.263 183.528 196.599 204.958 196.599C214.151 196.599 221.802 194.032 227.543 190.7ZM358.931 176.25H358.292L329.715 104.57H314.271V195.491H325.756V131.118H326.9L352.939 195.491H361.098L387.131 129.577H388.282V195.491H402.062V104.57H386.231L358.931 176.25ZM458.363 163.002C458.363 145.692 451.351 138.387 442.675 138.387C434.256 138.387 426.977 145.692 426.977 163.002C426.977 180.571 433.62 187.616 442.675 187.616C451.729 187.616 458.363 180.571 458.363 163.002ZM413.585 163.002C413.585 140.554 425.837 129.401 442.675 129.401C459.522 129.401 471.768 140.554 471.768 163.002C471.768 184.924 460.158 196.599 442.675 196.599C425.195 196.599 413.585 184.924 413.585 163.002ZM481.859 138.897C487.6 135.43 499.727 129.401 514.396 129.401C529.707 129.401 535.438 135.43 535.438 148.634V195.059H522.178V151.587C522.178 141.459 517.21 139.664 510.694 139.664C505.597 139.664 499.081 141.975 495.129 144.283V195.059H481.859L481.859 138.897ZM592.744 156.839H563.527C564.937 144.023 570.926 137.998 578.711 137.998C585.601 137.998 592.116 143.379 592.744 156.839ZM602.949 190.7V180.953C595.944 185.176 589.554 187.617 582.672 187.616C569.529 187.616 563.276 180.819 563.276 165.436H604.877V160.691C604.877 139.795 595.048 129.401 579.094 129.401C559.952 129.401 550.133 143.507 550.133 163.006C550.133 183.263 558.943 196.599 580.366 196.599C589.554 196.599 597.211 194.032 602.949 190.7ZM671.534 129.401H657.878L643.34 176.588H642.574L626.243 129.401H612.205L636.705 193.507C633.636 203.002 628.285 209.93 619.604 209.93V220.437C634.274 220.437 642.049 211.204 648.437 193.507L671.534 129.401Z" fill="#036CB5"/>
<path d="M824.042 54.0391C839.642 54.0391 854.485 57.6133 867.804 64.0069C869.893 64.9493 871.996 66.0772 874.078 67.2061L864.945 75.2959L851.254 61.1885L827.662 81.877L813.769 67.0157L770.387 105.576L798.162 135.859L787.319 145.262L814.721 175.545L803.878 184.943L843.075 228.017L866.274 206.95L886.452 229.527C882.453 232.537 878.077 235.553 873.326 238.181C858.863 246.268 842.117 250.962 824.234 250.962C769.242 250.962 724.536 206.769 724.536 152.416C724.342 98.4297 769.055 54.0391 824.042 54.0391ZM805.773 146.393L829.557 125.325L850.872 148.836L827.083 169.901L805.773 146.393ZM822.712 187.021L846.302 165.768L867.804 189.276L844.019 210.345L822.712 187.021ZM788.849 106.331L812.627 85.2637L833.936 108.774L810.151 129.841L788.849 106.331ZM832.412 95.042L850.108 79.2432L866.094 96.7364L848.398 112.722L832.412 95.042ZM864 167.457L881.69 151.657L897.676 169.333L879.978 185.143L864 167.457ZM879.599 203.01L897.297 187.207L913.269 204.699L895.579 220.683L879.599 203.01ZM886.831 121.751L898.626 111.217L909.277 122.883L897.484 133.413L886.831 121.751ZM871.609 86.9541L883.405 76.2353L894.064 88.083L882.26 98.6162L871.609 86.9541ZM901.86 156.551L913.655 146.018L924.5 157.68L912.517 168.21L901.86 156.551ZM848.777 130.405L866.474 114.605L882.453 132.095L864.763 147.897L848.777 130.405Z" fill="#036CB5"/>
</g>
<defs>
<clipPath id="clip0_1508_1885">
<rect width="990" height="300" fill="white"/>
</clipPath>
</defs>
</svg>
